<svg width="17" height="17" viewBox="0 0 17 17" fill="none" xmlns="http://www.w3.org/2000/svg">
<g id="icon/action/highlight_off_24px">
<path id="icon/action/highlight_off_24px_2" fill-rule="evenodd" clip-rule="evenodd" d="M8.50002 1.41663C4.58294 1.41663 1.41669 4.58288 1.41669 8.49996C1.41669 12.417 4.58294 15.5833 8.50002 15.5833C12.4171 15.5833 15.5834 12.417 15.5834 8.49996C15.5834 4.58288 12.4171 1.41663 8.50002 1.41663ZM10.3346 5.66663L8.50002 7.50121L6.66544 5.66663L5.66669 6.66538L7.50127 8.49996L5.66669 10.3345L6.66544 11.3333L8.50002 9.49871L10.3346 11.3333L11.3334 10.3345L9.49877 8.49996L11.3334 6.66538L10.3346 5.66663ZM2.83335 8.49996C2.83335 11.6237 5.37627 14.1666 8.50002 14.1666C11.6238 14.1666 14.1667 11.6237 14.1667 8.49996C14.1667 5.37621 11.6238 2.83329 8.50002 2.83329C5.37627 2.83329 2.83335 5.37621 2.83335 8.49996Z" fill="#E10808"/>
</g>
</svg>
